<?xml version="1.0" ?><svg data-name="Layer 1" height="88" id="Layer_1" viewBox="0 0 88 88" width="88" xmlns="http://www.w3.org/2000/svg"><title/><path d="M63.91,49.9a10.76,10.76,0,0,0,2.15-3.55A10.42,10.42,0,0,0,64.88,37c-.29-.43-.67-.82-.93-1.28a9.6,9.6,0,0,1-1.09-2.82,24.76,24.76,0,0,1-.5-5.83,21,21,0,0,1,.56-4.67c.34-1.43.71-2.85,1.08-4.28q.07-.3.21-.75v0a1,1,0,0,0-.7-1.23L57.93,14.6h0a1,1,0,0,0-1.18.72l0,.12a1.3,1.3,0,0,1-.53.73c-.59.37-10.08,6.89-11.81,8.06a.39.39,0,0,1-.35,0c-.51-.32-11.17-7.65-12.36-8.45a.8.8,0,0,1-.37-.51v-.06h0a.91.91,0,0,0-1.12-.63l-5.59,1.54a1,1,0,0,0-.7,1.23c.51,1.87.87,3.26,1.1,4.18a22.38,22.38,0,0,1,.66,4.61c.05,1.26,0,2.52,0,3.78A13.57,13.57,0,0,1,25.07,34a3.52,3.52,0,0,1-.71,1.53A10.07,10.07,0,0,0,22.07,39a10.29,10.29,0,0,0-.39,6.46,9.77,9.77,0,0,0,1.83,3.71,18,18,0,0,0,1.27,1.48c.19.21.47.34.68.53a.47.47,0,0,1,.16.3c0,.82,0,1.63-.08,2.44q-.13,2.3-.33,4.59-.13,1.63-1.5,13.8s0,.08,0,.11a1,1,0,0,0,1,1H63.49a1,1,0,0,0,.85-1.13c-.18-1.31-.31-2.31-.4-3-.21-1.58-1.27-11.55-1.35-12.88-.1-1.62-.15-3.26-.22-4.88a.41.41,0,0,1,.1-.3A7.72,7.72,0,0,0,63.91,49.9ZM55.85,18.75c-.14.54-.25,1-.37,1.45-.29,1.11-.53,2.22-.86,3.32A10.94,10.94,0,0,1,51.2,28.7l-.29.26-5-3.42ZM44,26.83h0c.16-.11.24,0,.36,0L47.42,29,49,30l.13.13a11.39,11.39,0,0,1-9.84,0c.31-.23.59-.44.87-.63Zm-1.58-1.29L39,27.87c-.48.33-1,.65-1.45,1a.3.3,0,0,1-.43,0,12.08,12.08,0,0,1-2.27-2.36,11.36,11.36,0,0,1-1.68-3.84c-.3-1.23-.63-2.44-.94-3.66,0-.15-.06-.29-.11-.5ZM57.81,52.75c.78-.12,1.55-.31,2.32-.47a2.27,2.27,0,0,0,.28-.07c.14,4.65.51,8.27,1.06,12.89h-3.4l.07,3.08H61.8l.44,3.32H25.81l.4-3.3H50.62V65.09l-24-.11c.51-4.63.82-8.11,1-12.76.45.11.88.24,1.31.32a9.24,9.24,0,0,0,1.37.2.9.9,0,0,0,.89-.82,1,1,0,0,0-.69-1.06l-2-.46a5.51,5.51,0,0,1-2.67-1.54,8.75,8.75,0,0,1-2.18-3.7,8.15,8.15,0,0,1,.06-4.84,8,8,0,0,1,2.11-3.46,4.18,4.18,0,0,0,.95-1.69,16.83,16.83,0,0,0,.85-5.89c0-1,0-2,0-3a26.08,26.08,0,0,0-.33-3.05c-.25-1.43-.6-2.86-.91-4.28-.09-.38-.19-.75-.29-1.16l3.59-1,.44,1.65c.37,1.42.73,2.84,1.11,4.25.17.65.3,1.3.52,1.92a12.05,12.05,0,0,0,3.44,5.16A13.34,13.34,0,0,0,41.76,33,12.56,12.56,0,0,0,53.51,29.2,13.23,13.23,0,0,0,55.73,26a14.75,14.75,0,0,0,1.11-3.15c.3-1.21.6-2.41.91-3.62l.54-2.15.09-.33h0l3.67,1c-.2.75-.43,1.47-.58,2.2-.34,1.64-.68,3.28-.95,4.94a18.72,18.72,0,0,0-.09,4.1c.07,1.09.15,2.19.31,3.27a14,14,0,0,0,1,3.57,11,11,0,0,0,1.34,2.08,8.4,8.4,0,0,1,.68,8.69A7.63,7.63,0,0,1,61,49.84a8,8,0,0,1-2.76.88l-.65.14a.92.92,0,0,0-.7,1.08A.9.9,0,0,0,57.81,52.75Z"/><path d="M46,41l1.35-1.36h0A1,1,0,1,0,46,38.23l-1.36,1.36-1.36-1.36h0a1,1,0,0,0-1.34,1.37L43.26,41,41.9,42.31h0a1,1,0,1,0,1.37,1.35l1.36-1.36L46,43.67h0a1,1,0,0,0,1.35-1.37Z"/><polygon points="55.95 65.1 52.82 65.1 52.82 68.19 55.95 68.19 55.95 65.1 55.95 65.1"/></svg>