<?xml version="1.0" standalone="no"?>
<!DOCTYPE svg PUBLIC "-//W3C//DTD SVG 20010904//EN"
 "http://www.w3.org/TR/2001/REC-SVG-20010904/DTD/svg10.dtd">
<svg version="1.0" xmlns="http://www.w3.org/2000/svg"
 width="100.000000pt" height="100.000000pt" viewBox="0 0 100.000000 100.000000"
 preserveAspectRatio="xMidYMid meet">
<metadata>
Created by potrace 1.16, written by Peter Selinger 2001-2019
</metadata>
<g transform="translate(0.000000,100.000000) scale(0.100000,-0.100000)"
fill="#000000" stroke="none">
<path d="M25 958 c-3 -7 -4 -218 -3 -468 l3 -455 470 0 470 0 0 465 0 465
-468 3 c-369 2 -469 0 -472 -10z m925 -458 l0 -460 -455 0 -455 0 0 460 0 460
455 0 455 0 0 -460z"/>
<path d="M180 640 l0 -170 170 0 170 0 0 170 0 170 -170 0 -170 0 0 -170z
m270 95 c0 -22 -4 -25 -35 -25 l-35 0 0 -90 0 -90 -30 0 -30 0 0 90 0 90 -35
0 c-31 0 -35 3 -35 25 l0 25 100 0 100 0 0 -25z"/>
<path d="M623 740 c-40 -24 -53 -48 -53 -100 0 -34 6 -48 34 -76 30 -30 40
-34 86 -34 43 0 56 4 80 29 103 102 -23 257 -147 181z"/>
<path d="M240 305 l0 -115 30 0 c26 0 30 4 30 28 0 24 25 62 41 62 2 0 15 -20
29 -45 22 -41 28 -45 62 -45 l37 0 -41 71 c-28 48 -38 76 -32 84 5 7 19 27 32
44 l23 31 -28 0 c-21 0 -39 -12 -75 -52 l-47 -53 -1 53 c0 51 -1 52 -30 52
l-30 0 0 -115z"/>
<path d="M634 410 c-38 -15 -64 -59 -64 -107 0 -38 5 -50 34 -79 30 -30 40
-34 86 -34 43 0 56 4 80 29 37 36 46 72 31 122 -19 64 -98 97 -167 69z"/>
</g>
</svg>
