<?xml version="1.0" encoding="iso-8859-1"?>
<!-- Generator: Adobe Illustrator 16.0.0, SVG Export Plug-In . SVG Version: 6.00 Build 0)  -->
<!DOCTYPE svg PUBLIC "-//W3C//DTD SVG 1.1//EN" "http://www.w3.org/Graphics/SVG/1.1/DTD/svg11.dtd">
<svg version="1.1" id="Capa_1" xmlns="http://www.w3.org/2000/svg" xmlns:xlink="http://www.w3.org/1999/xlink" x="0px" y="0px"
	 width="792px" height="792px" viewBox="0 0 792 792" style="enable-background:new 0 0 792 792;" xml:space="preserve">
<g>
	<g>
		<path d="M522,792c0,0,72,0,72-72V72c0-72-72-72-72-72H270c0,0-72,0-72,72v648c0,72,72,72,72,72H522z M234,72
			c0-17.352,5.4-25.452,16.092-30.816C257.688,37.404,266.076,36,270,36h252c3.924,0,12.312,1.404,19.908,5.184
			C552.6,46.548,558,54.648,558,72v18H234V72z M234,126h324v486H234V126z M234,720v-72h324v72c0,17.352-5.4,25.452-16.092,30.816
			C534.312,754.596,525.924,756,522,756H270c-3.924,0-12.312-1.404-19.908-5.184C239.4,745.452,234,737.352,234,720z"/>
		<path d="M445.212,54h-98.424c-2.664,0-4.788,3.492-4.788,7.956v2.124c0,4.392,2.16,7.956,4.788,7.956h98.424
			c2.664,0,4.788-3.492,4.788-7.956v-2.124C450,57.564,447.84,54,445.212,54z"/>
		<circle cx="396" cy="702" r="36"/>
	</g>
</g>
<g>
</g>
<g>
</g>
<g>
</g>
<g>
</g>
<g>
</g>
<g>
</g>
<g>
</g>
<g>
</g>
<g>
</g>
<g>
</g>
<g>
</g>
<g>
</g>
<g>
</g>
<g>
</g>
<g>
</g>
</svg>
