<?xml version="1.0" encoding="iso-8859-1"?>
<!-- Generator: Adobe Illustrator 19.0.0, SVG Export Plug-In . SVG Version: 6.00 Build 0)  -->
<svg version="1.1" id="Capa_1" xmlns="http://www.w3.org/2000/svg" xmlns:xlink="http://www.w3.org/1999/xlink" x="0px" y="0px"
	 viewBox="0 0 512 512" style="enable-background:new 0 0 512 512;" xml:space="preserve">
<g>
	<g>
		<path d="M504.5,206.861H379.467V115.11c0-4.143-3.357-7.5-7.5-7.5H7.5c-4.143,0-7.5,3.357-7.5,7.5v182.528
			c0,4.143,3.357,7.5,7.5,7.5h125.033v91.751c0,4.143,3.357,7.5,7.5,7.5H504.5c4.143,0,7.5-3.357,7.5-7.5V214.361
			C512,210.219,508.643,206.861,504.5,206.861z M132.533,290.139H15V122.61h349.467v84.251h-9.85v-33.469c0-4.143-3.357-7.5-7.5-7.5
			c-14.135,0-25.634-11.499-25.634-25.634c0-4.143-3.357-7.5-7.5-7.5H65.485c-4.143,0-7.5,3.357-7.5,7.5
			c0,14.135-11.499,25.634-25.634,25.634c-4.143,0-7.5,3.357-7.5,7.5v66.268c0,4.143,3.357,7.5,7.5,7.5
			c14.135,0,25.634,11.499,25.634,25.634c0,4.143,3.357,7.5,7.5,7.5h67.048V290.139z M140.035,206.861c-4.143,0-7.5,3.357-7.5,7.5
			v50.933H72.292c-3.073-16.404-16.036-29.367-32.44-32.44v-52.654c16.404-3.073,29.367-16.036,32.44-32.44h234.885
			c3.073,16.404,16.036,29.367,32.44,32.44v26.662H304.9v-0.001c0.005-0.112,0.017-0.222,0.017-0.335
			c0-13.27-10.796-24.066-24.066-24.066s-24.067,10.796-24.067,24.066c0,0.113,0.012,0.223,0.017,0.335h-18.165
			c0.005-0.112,0.017-0.222,0.017-0.335c0-26.973-21.944-48.916-48.917-48.916c-26.973,0-48.916,21.943-48.916,48.916
			c0,0.113,0.012,0.223,0.017,0.335H140.035z M289.934,206.861h-18.167c0.005-0.112,0.017-0.222,0.017-0.335
			c0-4.999,4.067-9.066,9.067-9.066c4.999,0,9.066,4.067,9.066,9.066C289.917,206.639,289.929,206.749,289.934,206.861z
			 M223.668,206.861h-67.867c0.005-0.112,0.017-0.222,0.017-0.335c0-18.701,15.215-33.916,33.916-33.916
			c18.702,0,33.917,15.215,33.917,33.916C223.651,206.639,223.663,206.749,223.668,206.861z M497,389.391H147.533v-91.732
			c0-0.007,0.001-0.013,0.001-0.019c0-0.006-0.001-0.013-0.001-0.019v-24.787c0-0.013,0.002-0.025,0.002-0.039
			c0-0.013-0.002-0.026-0.002-0.039v-50.894h198.104c0.478,0.096,0.973,0.148,1.48,0.148c0.507,0,1.001-0.052,1.48-0.148h21.89
			c0.479,0.096,0.973,0.148,1.48,0.148s1.001-0.052,1.48-0.148H497V389.391z"/>
	</g>
</g>
<g>
	<g>
		<path d="M479.651,265.145c-14.134,0-25.633-11.499-25.633-25.633c0-4.143-3.357-7.5-7.5-7.5H198.019v0c-4.143,0-7.5,3.357-7.5,7.5
			c0,14.134-11.499,25.633-25.634,25.633c-4.143,0-7.5,3.357-7.5,7.5v66.269c0,4.143,3.357,7.5,7.5,7.5
			c14.135,0,25.634,11.499,25.634,25.634c0,4.143,3.357,7.5,7.5,7.5h248.499c4.143,0,7.5-3.357,7.5-7.5
			c0-14.135,11.499-25.634,25.633-25.634c4.143,0,7.5-3.357,7.5-7.5v-66.269C487.151,268.502,483.794,265.145,479.651,265.145z
			 M472.15,332.105c-16.404,3.073-29.366,16.036-32.439,32.44H204.825c-3.073-16.404-16.036-29.367-32.44-32.44v-52.655
			c16.404-3.073,29.367-16.035,32.44-32.439h234.886c3.073,16.404,16.035,29.366,32.439,32.439V332.105z"/>
	</g>
</g>
<g>
	<g>
		<path d="M322.268,256.861c-26.973,0-48.916,21.944-48.916,48.917c0,26.973,21.943,48.916,48.916,48.916
			s48.917-21.943,48.917-48.916C371.185,278.806,349.24,256.861,322.268,256.861z M322.268,339.694
			c-18.701,0-33.916-15.215-33.916-33.916c0-18.702,15.215-33.917,33.916-33.917c18.702,0,33.917,15.215,33.917,33.917
			C356.185,324.479,340.97,339.694,322.268,339.694z"/>
	</g>
</g>
<g>
	<g>
		<path d="M231.151,281.711c-13.27,0-24.066,10.797-24.066,24.067c0,13.271,10.796,24.066,24.066,24.066
			c13.271,0,24.066-10.796,24.066-24.066C255.218,292.508,244.422,281.711,231.151,281.711z M231.151,314.845
			c-4.999,0-9.066-4.067-9.066-9.066c0-5,4.067-9.067,9.066-9.067c4.999,0,9.066,4.067,9.066,9.067
			C240.218,310.777,236.15,314.845,231.151,314.845z"/>
	</g>
</g>
<g>
	<g>
		<path d="M413.384,281.711c-13.27,0-24.066,10.797-24.066,24.067c0,13.271,10.796,24.066,24.066,24.066
			c13.271,0,24.066-10.796,24.066-24.066C437.45,292.508,426.654,281.711,413.384,281.711z M413.384,314.845
			c-4.999,0-9.066-4.067-9.066-9.066c0-5,4.067-9.067,9.066-9.067c4.999,0,9.066,4.067,9.066,9.067
			C422.45,310.777,418.383,314.845,413.384,314.845z"/>
	</g>
</g>
<g>
	<g>
		<path d="M98.618,182.461c-13.271,0-24.067,10.796-24.067,24.066c0,13.271,10.797,24.066,24.067,24.066
			c13.27,0,24.066-10.796,24.066-24.066C122.685,193.256,111.889,182.461,98.618,182.461z M98.618,215.594
			c-5,0-9.067-4.067-9.067-9.066c0-4.999,4.067-9.066,9.067-9.066c4.999,0,9.066,4.067,9.066,9.066
			C107.685,211.525,103.617,215.594,98.618,215.594z"/>
	</g>
</g>
<g>
	<g>
		<path d="M476.674,167.868c-2.93-2.929-7.679-2.93-10.607-0.001l-3.803,3.802c-0.8-30.848-26.125-55.701-57.162-55.701
			c-4.143,0-7.5,3.357-7.5,7.5c-0.001,4.142,3.356,7.5,7.499,7.5c22.741,0,41.327,18.083,42.16,40.623l-3.726-3.725
			c-2.93-2.93-7.679-2.929-10.606,0.001c-2.929,2.929-2.929,7.678,0.001,10.606l16.563,16.56c0.177,0.178,0.364,0.346,0.558,0.505
			c0.076,0.062,0.155,0.115,0.233,0.174c0.118,0.089,0.234,0.18,0.356,0.262c0.099,0.066,0.202,0.123,0.304,0.184
			c0.108,0.065,0.214,0.133,0.326,0.193c0.106,0.056,0.214,0.104,0.322,0.155c0.114,0.054,0.226,0.111,0.342,0.159
			c0.106,0.044,0.214,0.079,0.322,0.118c0.123,0.044,0.245,0.092,0.371,0.13c0.108,0.032,0.217,0.056,0.326,0.084
			c0.128,0.033,0.255,0.068,0.386,0.094c0.127,0.025,0.256,0.04,0.385,0.059c0.113,0.017,0.225,0.038,0.339,0.049
			c0.246,0.024,0.493,0.037,0.74,0.037s0.494-0.013,0.74-0.037c0.115-0.011,0.226-0.033,0.339-0.049
			c0.128-0.018,0.257-0.033,0.385-0.059c0.131-0.026,0.257-0.062,0.386-0.094c0.109-0.028,0.218-0.051,0.325-0.084
			c0.126-0.038,0.248-0.085,0.371-0.13c0.107-0.039,0.215-0.074,0.321-0.118c0.117-0.048,0.229-0.105,0.343-0.159
			c0.107-0.051,0.216-0.098,0.321-0.154c0.112-0.06,0.218-0.128,0.326-0.193c0.102-0.061,0.205-0.118,0.304-0.184
			c0.123-0.082,0.239-0.173,0.356-0.262c0.077-0.059,0.157-0.112,0.233-0.174c0.194-0.159,0.381-0.327,0.558-0.505l16.562-16.56
			C479.603,175.545,479.603,170.797,476.674,167.868z"/>
	</g>
</g>
<g>
	<g>
		<path d="M90.336,381.031c-22.74,0-41.326-18.082-42.16-40.623l3.725,3.724c1.464,1.464,3.384,2.196,5.303,2.196
			s3.839-0.732,5.304-2.197c2.929-2.929,2.929-7.678-0.001-10.606l-16.562-16.56c-0.177-0.178-0.363-0.346-0.557-0.504
			c-0.076-0.063-0.157-0.117-0.235-0.176c-0.117-0.088-0.233-0.179-0.355-0.261c-0.098-0.066-0.201-0.123-0.301-0.183
			c-0.109-0.066-0.216-0.134-0.329-0.194c-0.102-0.055-0.208-0.101-0.313-0.151c-0.117-0.056-0.233-0.114-0.353-0.164
			c-0.1-0.041-0.203-0.074-0.305-0.111c-0.129-0.047-0.256-0.096-0.388-0.136c-0.1-0.03-0.201-0.052-0.301-0.077
			c-0.136-0.035-0.272-0.073-0.411-0.1c-0.111-0.022-0.222-0.034-0.333-0.051c-0.131-0.02-0.26-0.044-0.393-0.057
			c-0.185-0.018-0.371-0.024-0.557-0.028c-0.06-0.001-0.118-0.009-0.178-0.009s-0.118,0.008-0.178,0.009
			c-0.186,0.004-0.371,0.01-0.556,0.028c-0.133,0.013-0.262,0.037-0.393,0.057c-0.111,0.017-0.223,0.029-0.333,0.051
			c-0.139,0.027-0.274,0.065-0.411,0.1c-0.101,0.026-0.202,0.047-0.301,0.077c-0.132,0.04-0.259,0.089-0.388,0.135
			c-0.102,0.037-0.205,0.07-0.306,0.112c-0.12,0.05-0.235,0.108-0.352,0.163c-0.105,0.05-0.211,0.096-0.314,0.151
			c-0.112,0.06-0.219,0.128-0.328,0.194c-0.101,0.061-0.203,0.117-0.301,0.183c-0.122,0.082-0.238,0.172-0.355,0.261
			c-0.078,0.059-0.159,0.113-0.235,0.176c-0.194,0.159-0.38,0.327-0.557,0.504l-16.562,16.56c-2.93,2.929-2.93,7.678-0.001,10.606
			c2.929,2.929,7.678,2.93,10.606,0.001l3.803-3.802c0.8,30.847,26.125,55.701,57.162,55.701c4.143,0,7.5-3.358,7.5-7.5
			C97.836,384.389,94.479,381.031,90.336,381.031z"/>
	</g>
</g>
<g>
</g>
<g>
</g>
<g>
</g>
<g>
</g>
<g>
</g>
<g>
</g>
<g>
</g>
<g>
</g>
<g>
</g>
<g>
</g>
<g>
</g>
<g>
</g>
<g>
</g>
<g>
</g>
<g>
</g>
</svg>
