<?xml version="1.0" ?><svg id="Capa_1" style="enable-background:new 0 0 512 512;" version="1.1" viewBox="0 0 512 512" xml:space="preserve" xmlns="http://www.w3.org/2000/svg" xmlns:xlink="http://www.w3.org/1999/xlink"><g><g><path d="M156,416c-5.52,0-10,4.48-10,10c0,5.52,4.48,10,10,10s10-4.48,10-10C166,420.48,161.52,416,156,416z"/></g></g><g><g><path d="M432,236c-11.938,0-22.665,5.264-30,13.585C394.665,241.264,383.938,236,372,236c-22.056,0-40,17.944-40,40    c0,22.056,17.944,40,40,40c11.938,0,22.665-5.264,30-13.585c7.335,8.321,18.062,13.585,30,13.585c22.056,0,40-17.944,40-40    C472,253.944,454.056,236,432,236z M372,296c-11.028,0-20-8.972-20-20s8.972-20,20-20s20,8.972,20,20S383.028,296,372,296z     M432,296c-11.028,0-20-8.972-20-20s8.972-20,20-20s20,8.972,20,20S443.028,296,432,296z"/></g></g><g><g><path d="M482,196h-50V46c0-16.542-13.458-30-30-30H30C13.458,16,0,29.458,0,46v240c0,16.542,13.458,30,30,30h56v150    c0,16.542,13.458,30,30,30h366c16.542,0,30-13.458,30-30V226C512,209.458,498.542,196,482,196z M20,46c0-5.514,4.486-10,10-10h372    c5.514,0,10,4.486,10,10v30H20V46z M20,96h392v40H20V96z M86,226v70H30c-5.514,0-10-4.486-10-10V156h392v40H116    C99.458,196,86,209.458,86,226z M492,466c0,5.514-4.486,10-10,10H116c-5.514,0-10-4.486-10-10V226c0-5.514,4.486-10,10-10h366    c5.514,0,10,4.486,10,10V466z"/></g></g><g><g><path d="M259,246H156c-5.522,0-10,4.478-10,10v40c0,5.522,4.478,10,10,10h103c5.522,0,10-4.478,10-10v-40    C269,250.478,264.522,246,259,246z M249,286h-83v-20h83V286z"/></g></g><g><g><path d="M199,356h-43c-5.522,0-10,4.478-10,10c0,5.522,4.478,10,10,10h43c5.522,0,10-4.478,10-10C209,360.478,204.522,356,199,356    z"/></g></g><g><g><path d="M279,356h-40c-5.522,0-10,4.478-10,10c0,5.522,4.478,10,10,10h40c5.522,0,10-4.478,10-10C289,360.478,284.522,356,279,356    z"/></g></g><g><g><path d="M302,416H199c-5.522,0-10,4.478-10,10c0,5.522,4.478,10,10,10h103c5.522,0,10-4.478,10-10    C312,420.478,307.522,416,302,416z"/></g></g><g><g><path d="M362,356h-40c-5.522,0-10,4.478-10,10c0,5.522,4.478,10,10,10h40c5.522,0,10-4.478,10-10C372,360.478,367.522,356,362,356    z"/></g></g><g><g><path d="M442,356h-40c-5.522,0-10,4.478-10,10c0,5.522,4.478,10,10,10h40c5.522,0,10-4.478,10-10C452,360.478,447.522,356,442,356    z"/></g></g><g/><g/><g/><g/><g/><g/><g/><g/><g/><g/><g/><g/><g/><g/><g/></svg>